<svg width="256" height="256" viewBox="0 0 256 256" fill="none" xmlns="http://www.w3.org/2000/svg">
  <rect width="256" height="256" rx="128" fill="#3F0D13"/>
  <circle cx="128" cy="126" r="112" fill="#B91C1C"/>
  <circle cx="128" cy="106" r="54" fill="#E5B58A"/>
  <path d="M86 108C86 78 104 54 128 54C152 54 170 78 170 108V113H86V108Z" fill="#261A16"/>
  <path d="M100 112C109 105 118 101 128 101C138 101 147 105 156 112" stroke="#261A16" stroke-width="8" stroke-linecap="round"/>
  <circle cx="110" cy="113" r="6" fill="#2A1E18"/>
  <circle cx="146" cy="113" r="6" fill="#2A1E18"/>
  <path d="M116 136C123 145 133 145 140 136" stroke="#8D5337" stroke-width="5" stroke-linecap="round"/>
  <path d="M74 238C82 184 101 160 128 160C155 160 174 184 182 238" fill="#F87171"/>
  <path d="M90 176C103 186 115 191 128 191C141 191 153 186 166 176" stroke="#FECACA" stroke-width="8" stroke-linecap="round"/>
  <rect x="108" y="18" width="40" height="18" rx="9" fill="#FECACA" fill-opacity="0.22"/>
  <text x="128" y="31" text-anchor="middle" fill="#FECACA" font-family="Arial, sans-serif" font-size="11" font-weight="700">FWD</text>
</svg>
