<svg width="256" height="256" viewBox="0 0 256 256" fill="none" xmlns="http://www.w3.org/2000/svg">
  <rect width="256" height="256" rx="128" fill="#1F2937"/>
  <circle cx="128" cy="126" r="112" fill="#A16207"/>
  <circle cx="128" cy="106" r="54" fill="#E7B98E"/>
  <path d="M86 103C86 75 104 54 128 54C152 54 170 75 170 103V111H86V103Z" fill="#3F2A1D"/>
  <path d="M92 109C103 96 116 90 128 90C140 90 153 96 164 109" stroke="#3F2A1D" stroke-width="8" stroke-linecap="round"/>
  <circle cx="108" cy="112" r="6" fill="#3B2C24"/>
  <circle cx="148" cy="112" r="6" fill="#3B2C24"/>
  <path d="M118 135C123 139 133 139 138 135" stroke="#9A5C3D" stroke-width="5" stroke-linecap="round"/>
  <path d="M75 238C83 185 101 160 128 160C155 160 173 185 181 238" fill="#F59E0B"/>
  <path d="M88 176L128 200L168 176" stroke="#FDE68A" stroke-width="8" stroke-linecap="round" stroke-linejoin="round"/>
  <rect x="108" y="18" width="40" height="18" rx="9" fill="#FDE68A" fill-opacity="0.22"/>
  <text x="128" y="31" text-anchor="middle" fill="#FDE68A" font-family="Arial, sans-serif" font-size="11" font-weight="700">GK</text>
</svg>
