<svg width="256" height="256" viewBox="0 0 256 256" fill="none" xmlns="http://www.w3.org/2000/svg">
  <rect width="256" height="256" rx="128" fill="#052E2B"/>
  <circle cx="128" cy="126" r="112" fill="#047857"/>
  <circle cx="128" cy="106" r="54" fill="#E2B48C"/>
  <path d="M88 108C88 79 106 55 128 55C150 55 168 79 168 108V116H88V108Z" fill="#3A2A1F"/>
  <path d="M102 111C109 104 118 100 128 100C138 100 147 104 154 111" stroke="#3A2A1F" stroke-width="8" stroke-linecap="round"/>
  <circle cx="110" cy="113" r="6" fill="#33261F"/>
  <circle cx="146" cy="113" r="6" fill="#33261F"/>
  <path d="M116 136C123 143 133 143 140 136" stroke="#8E573A" stroke-width="5" stroke-linecap="round"/>
  <path d="M74 238C82 183 101 160 128 160C155 160 174 183 182 238" fill="#34D399"/>
  <path d="M94 177H162" stroke="#D1FAE5" stroke-width="9" stroke-linecap="round"/>
  <rect x="108" y="18" width="40" height="18" rx="9" fill="#D1FAE5" fill-opacity="0.22"/>
  <text x="128" y="31" text-anchor="middle" fill="#D1FAE5" font-family="Arial, sans-serif" font-size="11" font-weight="700">MID</text>
</svg>
